<?xml version="1.0" encoding="utf-8"?>
<!-- Generator: Adobe Illustrator 19.2.1, SVG Export Plug-In . SVG Version: 6.00 Build 0)  -->
<svg version="1.1" id="Capa_1" xmlns="http://www.w3.org/2000/svg" xmlns:xlink="http://www.w3.org/1999/xlink" x="0px" y="0px"
	 viewBox="0 0 70 50" style="enable-background:new 0 0 70 50;" xml:space="preserve">
<g>
	<path style="fill:#F44336;" d="M59.6,9.8c-1.5-2.6-3.1-3.1-6.4-3.3C50,6.3,41.7,6.2,34.6,6.2c-7.2,0-15.4,0.1-18.7,0.3
		C12.6,6.7,11,7.2,9.5,9.8C8,12.5,7.2,17,7.2,25c0,0,0,0,0,0c0,0,0,0,0,0v0c0,8,0.8,12.5,2.3,15.1c1.5,2.6,3.1,3.1,6.4,3.3
		c3.3,0.2,11.5,0.3,18.7,0.3c7.1,0,15.4-0.1,18.7-0.3c3.3-0.2,4.9-0.7,6.4-3.3c1.5-2.6,2.3-7.2,2.3-15.1c0,0,0,0,0,0c0,0,0,0,0,0
		C61.9,17,61.2,12.5,59.6,9.8z"/>
	<polygon style="fill:#FAFAFA;" points="27.7,35.3 27.7,14.7 44.8,25 	"/>
</g>
</svg>
