<?xml version="1.0" encoding="utf-8"?>
<!-- Generator: Adobe Illustrator 19.2.1, SVG Export Plug-In . SVG Version: 6.00 Build 0)  -->
<svg version="1.1" id="Layer_1" xmlns="http://www.w3.org/2000/svg" xmlns:xlink="http://www.w3.org/1999/xlink" x="0px" y="0px"
	 viewBox="0 0 624.7 439" style="enable-background:new 0 0 624.7 439;" xml:space="preserve">
<style type="text/css">
	.st0{fill:#808080;}
	.st1{fill:#B3B3B3;}
</style>
<path class="st0" d="M-694.3,303c0,77.3-68,136-139.2,136c-85,0-160.8-54.1-160.8-171.6c0-137.6,117.5-255,289.2-267.4l4.6,29.4
	c-108.2,17-167,71.1-167,137.6C-782.4,151.6-694.3,202.6-694.3,303L-694.3,303z M-369.6,303c0,77.3-68,136-139.2,136
	c-85,0-160.8-54.1-160.8-171.6c0-137.6,117.5-255,289.2-267.4l4.6,29.4c-108.2,17-167,71.1-167,137.6
	C-457.7,151.6-369.6,202.6-369.6,303L-369.6,303z"/>
<path class="st1" d="M324.7,136c0-77.3,68-136,139.2-136c85,0,160.8,54.1,160.8,171.6c0,137.6-117.5,255-289.2,267.4l-4.6-29.4
	c108.2-17,167-71.1,167-137.6C412.8,287.4,324.7,236.4,324.7,136L324.7,136z M0,136C0,58.7,68,0,139.2,0C224.2,0,300,54.1,300,171.6
	c0,137.6-117.5,255-289.2,267.4l-4.6-29.4c108.2-17,167-71.1,167-137.6C88.1,287.4,0,236.4,0,136L0,136z"/>
</svg>
